<?xml version="1.0" standalone="no"?>
<!DOCTYPE svg PUBLIC "-//W3C//DTD SVG 20010904//EN"
 "http://www.w3.org/TR/2001/REC-SVG-20010904/DTD/svg10.dtd">
<svg version="1.0" xmlns="http://www.w3.org/2000/svg"
 width="1000.000000pt" height="1000.000000pt" viewBox="0 0 1000.000000 1000.000000"
 preserveAspectRatio="xMidYMid meet">
<metadata>
Created by potrace 1.11, written by Peter Selinger 2001-2013
</metadata>
<g transform="translate(0.000000,1000.000000) scale(0.100000,-0.100000)"
fill="#000000" stroke="none">
<path d="M1602 9541 c-13 -8 -32 -47 -32 -64 0 -20 44 -62 67 -63 32 -3 63
-16 63 -28 0 -18 -33 -34 -55 -26 -11 4 -27 4 -36 -1 -8 -4 -21 -4 -28 0 -18
11 -82 -9 -120 -38 -64 -49 -79 -139 -33 -200 22 -30 102 -80 118 -74 7 2 15
-1 19 -6 3 -6 11 -9 16 -5 15 9 79 -16 79 -32 0 -14 -11 -18 -37 -15 -7 1 -13
-2 -13 -7 0 -5 -16 -4 -35 2 -19 6 -35 14 -35 18 0 5 -7 8 -15 8 -8 0 -15 4
-15 9 0 4 -21 19 -47 31 -27 13 -59 29 -73 35 -45 22 -134 43 -170 40 -48 -4
-44 -2 -73 -27 -28 -25 -44 -57 -192 -393 -54 -121 -110 -248 -126 -282 -16
-34 -29 -64 -29 -67 0 -3 -18 -44 -41 -93 -23 -48 -45 -97 -49 -108 -10 -26
-209 -477 -267 -605 -14 -30 -31 -71 -39 -90 -8 -19 -20 -44 -26 -54 -44 -80
-24 -133 82 -220 43 -34 65 -29 277 66 26 12 50 22 53 23 3 0 36 15 73 33 38
18 74 32 80 32 7 0 21 7 31 15 10 8 23 12 27 9 5 -3 9 -1 9 4 0 5 21 17 48 27
26 10 72 30 102 44 30 14 57 26 60 26 3 1 37 16 75 34 39 18 75 34 80 35 6 2
42 18 80 35 39 18 84 38 100 46 17 7 51 22 77 34 228 102 479 211 488 211 5 0
10 5 10 10 0 6 6 10 13 10 28 0 134 59 151 85 23 35 27 87 10 152 -13 52 -61
155 -94 203 -20 30 -32 60 -22 58 4 -1 16 2 27 6 57 22 96 32 165 43 93 15
229 23 235 13 2 -3 32 -5 66 -4 70 2 89 16 89 66 0 36 -32 65 -78 71 -47 6
-289 0 -322 -7 -14 -4 -36 -8 -50 -11 -45 -8 -134 -33 -165 -46 -53 -21 -62
-20 -91 18 -15 20 -41 51 -58 69 -99 104 -151 156 -214 213 l-70 64 29 24 c33
28 54 93 43 132 -4 14 -7 29 -6 32 1 4 -11 20 -26 36 -34 37 -111 73 -157 73
-19 0 -35 5 -35 10 0 6 -7 10 -15 10 -15 0 -22 29 -7 31 4 1 39 3 77 4 39 1
87 7 107 14 42 14 94 68 104 108 10 40 -13 113 -44 140 -36 33 -80 55 -92 48
-6 -3 -10 -1 -10 4 0 11 -72 12 -88 2z"/>
<path d="M636 9517 c-89 -22 -155 -133 -151 -255 1 -59 17 -81 61 -86 37 -4
75 34 72 72 0 15 2 46 6 70 15 83 89 91 124 15 18 -42 26 -250 11 -326 -4 -23
-15 -82 -24 -132 -22 -117 -20 -107 -45 -207 -12 -48 -20 -98 -17 -110 15 -58
99 -61 122 -4 13 30 59 202 68 256 3 14 8 43 12 65 4 22 9 48 11 59 17 95 22
269 11 355 -17 127 -88 218 -174 223 -5 0 -17 4 -28 8 -11 3 -38 2 -59 -3z"/>
<path d="M2204 9449 c-3 -5 -9 -7 -14 -4 -12 7 -58 -33 -75 -65 -58 -111 65
-234 177 -178 90 44 103 163 24 223 -33 25 -102 40 -112 24z"/>
<path d="M8292 9295 c-7 -8 -15 -28 -17 -44 -4 -36 23 -63 83 -80 25 -7 42
-18 42 -26 0 -17 0 -17 -96 -20 -92 -2 -152 -30 -182 -84 -37 -65 -27 -127 29
-180 29 -28 60 -41 167 -70 39 -11 59 -39 30 -42 -7 -1 -26 -3 -42 -5 -17 -2
-40 5 -55 15 -52 36 -157 90 -218 110 -104 35 -169 24 -211 -36 -10 -16 -47
-93 -82 -173 -35 -80 -78 -178 -97 -218 -18 -39 -33 -74 -33 -76 0 -3 -13 -33
-29 -68 -16 -35 -59 -130 -95 -212 -37 -83 -68 -152 -70 -154 -2 -2 -36 20
-75 48 l-70 52 21 29 c15 19 21 43 21 76 1 92 -56 139 -161 134 -12 -1 -38
-16 -58 -34 -28 -26 -37 -42 -41 -77 l-5 -45 -1019 1 c-561 1 -1022 3 -1025 6
-2 3 -6 20 -9 38 -10 78 -90 178 -161 201 -47 15 -892 21 -939 7 -98 -30 -174
-113 -188 -207 -3 -18 -8 -35 -10 -38 -3 -2 -54 -6 -113 -7 -159 -5 -247 -30
-360 -102 -146 -93 -233 -219 -289 -420 -2 -6 -20 -15 -40 -18 -20 -4 -55 -15
-79 -26 l-44 -18 -6 37 c-7 44 -48 92 -95 111 -37 15 -129 16 -158 3 -10 -5
-25 -8 -33 -7 -8 1 -21 2 -27 3 -21 2 -15 27 9 39 13 6 46 20 74 32 137 57
172 197 68 277 -34 25 -45 28 -115 28 -65 0 -82 -3 -98 -20 -20 -21 -24 -34
-22 -71 1 -21 54 -53 76 -45 22 8 64 8 76 0 10 -6 9 -12 -6 -28 -10 -12 -20
-19 -23 -16 -2 2 -17 -2 -33 -11 -16 -8 -29 -12 -29 -9 0 10 -63 -37 -87 -64
-41 -47 -49 -107 -24 -170 13 -31 74 -70 118 -75 15 -2 33 -5 38 -6 6 -1 12
-1 15 0 14 5 50 11 93 14 33 3 47 0 47 -9 0 -19 -19 -31 -83 -55 -66 -25 -122
-77 -133 -123 -10 -42 -7 -101 6 -105 5 -2 10 -8 10 -14 0 -5 6 -16 14 -24 13
-12 13 -19 0 -51 -40 -94 -41 -123 -42 -1508 -1 -737 -2 -1344 -2 -1350 0 -5
1 -52 2 -103 2 -50 -1 -92 -5 -92 -5 0 -5 -5 -1 -11 9 -15 9 -193 0 -207 -3
-6 -3 -13 2 -16 4 -2 6 -21 4 -40 l-4 -36 -28 20 c-49 35 -177 92 -219 97 -82
11 -143 -73 -103 -143 6 -12 8 -25 4 -29 -4 -5 -2 -5 4 -2 7 4 17 0 24 -8 7
-8 17 -15 23 -15 29 0 178 -86 220 -127 75 -73 80 -87 79 -243 0 -74 -1 -138
-1 -142 -1 -4 -52 19 -113 51 -289 151 -504 168 -585 48 -12 -18 -42 -72 -68
-122 -26 -49 -51 -89 -56 -88 -4 2 -6 -3 -3 -10 3 -8 -11 -47 -30 -88 -19 -41
-55 -126 -81 -189 -25 -63 -50 -124 -55 -135 -18 -41 -130 -336 -130 -341 0
-5 -60 -173 -88 -244 -3 -8 -6 -17 -6 -20 -1 -3 -31 -97 -68 -210 -62 -190
-115 -365 -138 -450 -5 -19 -17 -62 -26 -95 -10 -33 -18 -64 -20 -70 -1 -5
-14 -64 -29 -130 -32 -142 -31 -140 -52 -275 -2 -14 -6 -83 -8 -155 -4 -112
-2 -136 14 -172 37 -80 125 -100 346 -79 44 4 82 9 86 11 3 2 27 6 53 10 27 3
51 7 55 9 4 3 25 7 49 11 58 8 295 68 422 105 58 17 114 33 125 35 11 3 111
34 223 70 111 36 208 63 214 59 6 -4 8 -3 5 3 -3 5 11 15 31 22 36 12 223 78
252 89 8 3 17 6 20 6 11 3 157 59 185 72 17 7 66 27 110 43 226 83 641 277
697 325 47 42 62 83 61 171 -1 44 -6 92 -12 108 -12 31 -31 28 175 29 l132 0
40 -40 c85 -85 209 -83 296 4 l37 37 1011 0 c1097 0 1099 0 1218 56 175 83
298 220 351 389 11 37 22 73 24 80 3 6 11 12 20 12 31 0 135 40 196 77 91 53
196 163 241 254 78 154 71 -64 73 2394 l2 2200 94 42 c52 23 121 54 154 69 33
14 78 34 101 44 22 10 220 98 440 195 610 270 583 257 609 293 46 63 16 180
-92 369 l-24 41 68 20 c141 43 297 58 421 42 44 -5 58 -3 78 12 32 26 33 82 2
102 -84 53 -435 25 -615 -50 -19 -9 -36 -14 -38 -12 -90 112 -210 238 -319
334 l-57 51 24 16 c38 25 60 81 52 134 -11 77 -78 128 -194 148 -19 3 -43 11
-54 17 -20 10 -20 11 -2 24 12 9 46 14 90 14 126 0 200 56 200 153 0 91 -72
156 -180 164 -36 3 -54 -1 -63 -12z m-4590 -1798 c3 -353 4 -363 25 -404 31
-57 67 -90 132 -120 45 -21 63 -25 115 -21 34 3 77 13 96 23 33 17 200 136
228 162 24 23 52 34 66 26 7 -4 68 -48 135 -98 67 -49 136 -95 154 -102 41
-15 133 -15 175 0 51 19 118 78 144 127 23 44 23 49 26 406 l3 362 1017 -2
1017 -1 66 -31 c65 -31 155 -107 178 -151 13 -26 24 2 -122 -328 -58 -132
-105 -247 -103 -255 7 -38 27 -69 69 -107 65 -60 97 -65 178 -30 l36 16 -1
-1607 -1 -1607 -25 -64 c-36 -92 -105 -165 -200 -210 l-75 -36 -1321 -1 -1322
-1 -31 76 c-46 111 -48 146 -12 181 27 27 31 28 67 18 22 -5 57 -18 79 -29
212 -96 300 -103 413 -29 50 32 65 48 92 104 46 92 45 159 -3 258 -46 97 -157
212 -289 302 -32 21 -56 42 -53 45 4 7 -9 9 -73 12 -72 3 -116 -53 -98 -126 7
-29 9 -30 108 -96 131 -87 250 -218 242 -266 -1 -7 -2 -17 -3 -23 -2 -14 -42
-38 -72 -43 -15 -3 -54 7 -95 24 -205 87 -288 100 -376 61 -89 -39 -162 -138
-170 -232 -5 -46 21 -160 47 -210 l14 -28 -137 1 c-120 0 -143 3 -188 23 -29
13 -71 25 -95 27 -45 4 -125 -14 -163 -37 -12 -7 -40 -14 -63 -15 -39 -2 -164
-30 -206 -46 -18 -8 -18 -7 4 50 7 17 13 32 14 35 0 3 9 32 19 64 23 77 54
202 61 246 19 120 27 209 28 315 2 97 1 97 -30 125 -28 25 -35 27 -74 20 -69
-13 -89 -46 -90 -150 0 -47 -2 -92 -3 -100 -2 -8 -6 -45 -10 -83 -7 -71 -43
-253 -56 -276 -4 -7 -7 866 -6 1940 1 2129 -2 1991 58 2090 51 83 143 152 234
172 31 7 93 14 139 15 l84 2 3 -363z m-779 -1418 c0 -673 -2 -1228 -3 -1234
-1 -5 -2 -14 0 -20 1 -5 2 -157 3 -336 l2 -327 -23 9 c-60 23 -164 -2 -206
-50 -11 -11 -22 -21 -26 -21 -4 0 -7 649 -7 1443 0 1564 -3 1495 54 1600 38
69 163 173 197 163 6 -1 9 -498 9 -1227z m-168 -2288 c48 -23 99 -27 139 -11
30 11 28 28 27 -185 -1 -77 -1 -149 -1 -160 0 -11 0 -96 1 -190 0 -229 1 -219
-18 -241 -10 -10 -27 -36 -38 -58 -11 -21 -25 -40 -31 -43 -6 -2 -33 17 -60
42 -27 25 -63 55 -80 67 l-31 21 0 418 0 417 23 -28 c13 -15 44 -37 69 -49z
m4579 -518 c-2 -21 -7 -49 -11 -63 -3 -14 -7 -27 -8 -30 0 -3 -11 -25 -24 -50
-38 -71 -127 -151 -202 -180 l-64 -25 -1023 -1 -1023 -1 -14 26 c-47 91 -179
131 -270 83 -42 -22 -74 -53 -93 -88 -11 -21 -15 -21 -437 -21 l-426 0 -15 36
c-42 96 -54 136 -54 182 0 43 -6 40 93 42 30 0 58 -2 63 -6 6 -3 16 -2 23 2 7
5 23 6 34 3 20 -5 33 -15 106 -79 46 -40 125 -80 174 -87 60 -9 118 11 169 57
25 23 53 57 62 75 15 28 21 32 59 33 23 0 618 1 1322 3 704 1 1291 6 1304 9
78 21 155 52 202 82 30 19 55 35 56 35 1 0 0 -17 -3 -37z m-3869 -228 c4 -16
8 -40 9 -52 0 -13 4 -23 7 -23 3 0 16 -26 29 -57 49 -121 89 -163 152 -163
l38 0 0 -44 0 -44 483 0 c265 1 507 -3 537 -7 77 -12 92 -12 120 -2 14 5 496
9 1094 10 589 0 1093 4 1120 9 92 16 243 79 261 109 15 23 23 5 18 -38 -17
-152 -144 -292 -298 -328 -37 -9 -352 -11 -1240 -8 -1459 5 -1456 5 -1904 0
-405 -5 -430 -2 -527 59 -57 36 -107 90 -98 105 3 5 0 8 -6 7 -26 -6 -68 102
-74 190 -10 149 71 293 206 365 l53 28 7 -43 c3 -24 9 -56 13 -73z m3321 -908
c11 -11 -40 -92 -86 -138 -49 -49 -81 -69 -154 -97 -37 -14 -154 -16 -1091
-17 -1048 -2 -1049 -2 -1085 19 -48 28 -140 28 -195 -1 -37 -19 -55 -20 -273
-19 l-233 1 -31 55 c-16 30 -47 83 -69 117 -21 34 -39 67 -39 72 0 6 26 11 58
13 103 5 3192 1 3198 -5z"/>
<path d="M4090 5651 l0 -731 370 0 c312 1 377 3 417 17 119 40 202 125 237
244 24 78 23 851 0 930 -24 79 -100 175 -169 212 -96 52 -87 51 -482 55 l-373
4 0 -731z m716 463 c53 -25 64 -63 64 -217 l0 -134 -260 0 -260 0 0 183 0 183
83 3 c171 6 339 -2 373 -18z m62 -719 c3 -138 -9 -176 -67 -209 -31 -18 -54
-20 -240 -21 l-206 0 -3 176 -2 176 257 -1 258 -1 3 -120z"/>
<path d="M5390 6170 l0 -130 60 0 c33 0 197 -1 365 -1 168 0 375 1 460 1 l155
0 0 130 0 130 -520 0 -520 0 0 -130z"/>
<path d="M5390 5650 l0 -130 520 0 520 0 0 130 0 130 -520 0 -520 0 0 -130z"/>
<path d="M5390 5130 l0 -130 520 0 520 0 0 130 0 130 -520 0 -520 0 0 -130z"/>
<path d="M4368 4742 l-278 -2 0 -130 0 -130 30 0 c17 0 120 0 230 0 110 0 623
0 1140 0 l940 0 0 130 0 130 -892 2 c-491 2 -1018 2 -1170 0z"/>
<path d="M4024 4380 c-90 -20 -156 -102 -158 -194 0 -54 28 -136 47 -136 6 0
7 -3 4 -7 -6 -6 6 -14 77 -51 37 -19 109 -18 157 2 40 17 95 74 110 115 15 37
13 113 -4 152 -37 87 -140 140 -233 119z"/>
<path d="M7350 9280 c-51 -9 -94 -37 -123 -82 -27 -41 -51 -147 -43 -188 2
-14 5 -31 5 -38 1 -7 16 -19 33 -27 28 -11 37 -11 60 1 16 8 29 20 29 27 10
109 17 138 36 159 40 44 93 6 113 -81 12 -50 9 -228 -4 -301 -3 -14 -7 -42
-10 -63 -8 -52 -40 -198 -62 -278 -22 -82 -15 -113 28 -128 69 -24 98 33 153
304 44 221 52 412 20 521 -36 126 -126 193 -235 174z"/>
<path d="M8885 9206 c-52 -23 -79 -61 -81 -114 -5 -110 99 -176 194 -124 49
26 71 66 68 123 -2 58 -39 103 -95 119 -45 12 -49 12 -86 -4z"/>
<path d="M2500 9106 c0 -5 -3 -6 -6 -3 -8 8 -51 -40 -57 -63 -10 -39 29 -109
66 -116 4 -1 10 -3 15 -4 36 -12 82 8 106 45 29 44 8 119 -39 140 -28 12 -85
13 -85 1z"/>
<path d="M1994 9017 c-38 -46 -36 -100 7 -139 49 -47 129 -32 154 28 20 49 12
84 -26 117 -46 37 -100 35 -135 -6z"/>
<path d="M9193 8870 c-25 -10 -50 -46 -53 -75 -4 -42 1 -57 29 -86 23 -22 39
-29 68 -29 41 1 59 11 86 50 55 80 -36 178 -130 140z"/>
<path d="M2269 8819 c-16 -15 -30 -34 -30 -43 -5 -57 -1 -72 24 -97 13 -12 26
-21 28 -20 2 1 16 -2 30 -7 53 -21 125 45 114 104 -2 10 -4 23 -4 27 -1 4 -15
21 -32 38 -39 38 -88 37 -130 -2z"/>
<path d="M8729 8806 c-77 -33 -82 -143 -9 -181 81 -42 169 33 140 119 -18 54
-80 84 -131 62z"/>
<path d="M8982 8594 c-24 -16 -49 -61 -46 -81 1 -7 2 -20 3 -29 2 -29 57 -74
91 -74 71 0 125 70 101 133 -22 58 -101 85 -149 51z"/>
<path d="M406 8487 c-66 -48 -75 -149 -20 -205 48 -47 134 -50 184 -6 95 85
31 240 -97 233 -23 -2 -53 -11 -67 -22z"/>
<path d="M2489 8362 c-38 -26 -48 -44 -48 -87 0 -44 12 -65 49 -85 39 -22 72
-19 107 7 41 32 51 77 28 127 -10 20 -20 34 -23 31 -3 -2 -12 1 -20 7 -21 18
-67 18 -93 0z"/>
<path d="M9194 8130 c-77 -31 -68 -160 13 -187 62 -21 133 30 133 95 0 70 -78
120 -146 92z"/>
<path d="M9165 7822 c-57 -10 -84 -24 -93 -50 -21 -60 18 -94 100 -90 39 2 53
-1 53 -10 0 -14 -21 -27 -102 -62 -60 -27 -86 -51 -107 -101 -33 -80 7 -164
91 -191 49 -16 64 -16 167 -3 54 7 58 7 54 -11 -2 -12 -24 -28 -64 -44 -34
-14 -73 -33 -87 -42 -49 -33 -74 -97 -68 -170 2 -27 59 -86 95 -98 46 -15 120
-15 155 0 16 6 35 25 42 41 10 26 9 34 -8 57 -18 24 -27 27 -83 27 -85 0 -89
18 -13 51 89 39 106 49 137 88 25 30 30 46 30 91 2 120 -87 166 -268 140 -53
-7 -58 -7 -55 10 3 12 26 27 64 43 111 44 157 96 159 178 1 46 -20 83 -65 116
-26 19 -101 36 -134 30z"/>
<path d="M1883 7556 c-26 -12 -53 -63 -53 -98 0 -13 12 -39 28 -57 23 -27 34
-32 71 -33 38 0 49 4 73 31 76 85 -18 208 -119 157z"/>
<path d="M8579 7316 c-34 -20 -53 -66 -45 -110 21 -113 196 -92 196 24 0 76
-84 123 -151 86z"/>
<path d="M1015 4489 c-84 -13 -108 -19 -170 -41 -84 -29 -159 -80 -192 -129
-24 -36 -27 -52 -28 -119 0 -71 3 -82 30 -121 59 -83 120 -109 273 -114 89 -2
111 -10 112 -37 0 -13 -93 -87 -103 -81 -6 3 -7 1 -3 -5 4 -7 -4 -22 -18 -36
-65 -59 -86 -179 -45 -262 54 -114 160 -138 342 -79 96 31 129 30 137 -5 10
-38 -55 -126 -113 -157 -91 -46 -51 -200 50 -195 49 3 58 7 107 47 26 22 52
39 58 37 5 -1 7 1 4 6 -3 5 5 19 18 33 80 86 109 199 75 292 -25 68 -63 114
-117 141 -64 32 -125 31 -254 0 -60 -15 -111 -24 -115 -20 -4 3 24 34 61 68
121 110 152 205 103 310 -29 63 -55 91 -105 117 -51 25 -75 30 -170 32 -66 1
-88 6 -109 22 l-25 20 27 15 c26 13 122 48 138 50 115 12 143 20 171 45 47 44
46 107 -2 152 -29 27 -49 29 -137 14z"/>
<path d="M1746 4475 c-150 -53 -180 -253 -53 -354 133 -105 331 -2 325 169 -4
140 -140 232 -272 185z"/>
<path d="M4520 1393 c-77 -26 -139 -84 -160 -147 -14 -43 -16 -132 -5 -201 21
-133 10 -137 -123 -48 -57 38 -110 70 -120 71 -105 9 -151 -5 -215 -66 -36
-35 -50 -74 -51 -137 0 -23 24 -115 34 -130 18 -26 73 -176 67 -181 -24 -24
-135 27 -187 86 -18 21 -70 47 -87 44 -7 -1 -20 -2 -28 -3 -26 -2 -65 -54 -65
-87 0 -43 27 -74 107 -122 100 -60 167 -81 255 -78 101 4 117 10 165 70 68 85
65 156 -13 308 -49 97 -49 98 -31 98 19 0 49 -35 40 -45 -5 -4 -2 -5 5 -1 7 4
28 -5 51 -23 21 -17 44 -31 50 -31 6 0 11 -4 11 -8 0 -14 82 -37 130 -36 73 1
155 55 190 125 17 33 19 52 14 136 -9 156 -8 183 5 196 26 25 102 -97 142
-228 14 -47 39 -71 80 -80 60 -13 119 35 119 98 0 35 -44 158 -81 228 -41 77
-108 151 -155 174 -38 18 -117 28 -144 18z"/>
</g>
</svg>
